<svg width="220" height="56" viewBox="0 0 220 56" fill="none" xmlns="http://www.w3.org/2000/svg">
    <path d="M9.68424 28.9721C8.89885 28.9721 8.34193 28.46 8.01349 27.436L0.0881276 2.43212C-0.0832316 1.89165 -0.00469199 1.35118 0.323747 0.810706C0.666465 0.270235 1.15912 0 1.80172 0C2.14444 0 2.47288 0.113784 2.78704 0.341351C3.10119 0.554694 3.32967 0.896044 3.47247 1.3654L10.4554 23.5105H9.51289L16.1531 1.57874C16.3101 1.06672 16.5743 0.682699 16.9456 0.426687C17.3312 0.170674 17.7239 0.0426682 18.1237 0.0426682C18.5521 0.0426682 18.9662 0.170674 19.366 0.426687C19.7659 0.682699 20.0372 1.06672 20.18 1.57874L26.8202 23.5105H25.8777L32.8606 1.3654C33.0177 0.896044 33.239 0.561805 33.5246 0.362683C33.8245 0.14934 34.1458 0.0426682 34.4885 0.0426682C35.1168 0.0426682 35.6166 0.284458 35.9879 0.768038C36.3592 1.25162 36.4448 1.80631 36.2449 2.43212L28.3196 27.436C27.9768 28.46 27.3485 28.9721 26.4346 28.9721H26.3489C25.3922 28.9721 24.7639 28.46 24.464 27.436L17.5668 5.20558H18.5092L11.5692 27.436C11.4264 27.948 11.2122 28.332 10.9266 28.5881C10.6553 28.8441 10.2412 28.9721 9.68424 28.9721Z" fill="white"/>
    <path d="M49.5457 28.9721C46.2756 28.9721 43.8551 28.1969 42.2843 26.6466C40.7278 25.0821 39.9496 22.6713 39.9496 19.4143V9.5578C39.9496 6.2723 40.735 3.86152 42.3058 2.32545C43.8765 0.775148 46.2899 0.0142227 49.5457 0.0426682H54.6865C57.9708 0.0426682 60.3913 0.817817 61.9478 2.36811C63.5043 3.91841 64.2826 6.3292 64.2826 9.60047V19.4143C64.2826 22.6713 63.5043 25.0821 61.9478 26.6466C60.3913 28.1969 57.9708 28.9721 54.6865 28.9721H49.5457ZM49.5457 25.3879H54.6865C56.2144 25.3879 57.4139 25.2101 58.285 24.8545C59.1561 24.4847 59.7701 23.866 60.1271 22.9984C60.4984 22.1309 60.684 20.9361 60.684 19.4143V9.60047C60.684 8.09284 60.4984 6.90522 60.1271 6.03763C59.7701 5.17003 59.1561 4.55133 58.285 4.18154C57.4139 3.81174 56.2144 3.62684 54.6865 3.62684H49.5457C48.032 3.61262 46.8396 3.7833 45.9686 4.13887C45.0975 4.49444 44.4763 5.10602 44.105 5.97362C43.7338 6.84122 43.5481 8.03594 43.5481 9.5578V19.4143C43.5481 20.9361 43.7266 22.1309 44.0836 22.9984C44.4549 23.866 45.0761 24.4847 45.9471 24.8545C46.8182 25.2101 48.0177 25.3879 49.5457 25.3879Z" fill="white"/>
    <path d="M73.9446 28.9721C72.7451 28.9721 72.1454 28.3747 72.1454 27.18V1.83475C72.1454 0.64003 72.7451 0.0426682 73.9446 0.0426682C75.1441 0.0426682 75.7439 0.64003 75.7439 1.83475V25.3879H87.6105C88.81 25.3879 89.4098 25.9853 89.4098 27.18C89.4098 28.3747 88.81 28.9721 87.6105 28.9721H73.9446Z" fill="white"/>
    <path d="M97.1216 28.9721C95.9221 28.9721 95.3224 28.3747 95.3224 27.18V1.83475C95.3224 0.64003 95.9221 0.0426682 97.1216 0.0426682H112.887C113.444 0.0426682 113.879 0.206232 114.193 0.533359C114.522 0.846262 114.686 1.28006 114.686 1.83475C114.686 3.02948 114.086 3.62684 112.887 3.62684H98.9209V12.5873H107.532C108.731 12.5873 109.331 13.1846 109.331 14.3794C109.331 15.5741 108.731 16.1715 107.532 16.1715H98.9209V27.18C98.9209 28.3747 98.3212 28.9721 97.1216 28.9721Z" fill="white"/>
    <path d="M120.926 28.9721C119.727 28.9721 119.127 28.3747 119.127 27.18V1.83475C119.127 0.64003 119.727 0.0426682 120.926 0.0426682H130.951C133.564 0.0426682 135.563 0.739591 136.948 2.13344C138.348 3.51306 139.047 5.50427 139.047 8.10706V9.38712C139.047 11.9899 138.348 13.9882 136.948 15.3821C135.563 16.7617 133.564 17.4515 130.951 17.4515H122.725V27.18C122.725 28.3747 122.126 28.9721 120.926 28.9721ZM122.725 13.8673H130.951C132.579 13.8673 133.735 13.526 134.421 12.8433C135.106 12.1606 135.449 11.0085 135.449 9.38712V8.10706C135.449 6.49987 135.106 5.35493 134.421 4.67223C133.735 3.9753 132.579 3.62684 130.951 3.62684H122.725V13.8673Z" fill="white"/>
    <path d="M141.477 28.8014C140.335 28.3605 139.992 27.5782 140.449 26.4546L150.645 1.45074C151.073 0.512024 151.744 0.0426682 152.658 0.0426682H152.744C153.672 0.0853372 154.3 0.554693 154.629 1.45074L164.996 26.4546C165.453 27.5782 165.124 28.3605 164.011 28.8014C162.883 29.2423 162.097 28.9152 161.654 27.82L159.341 22.2304H145.997L143.79 27.82C143.348 28.9294 142.576 29.2565 141.477 28.8014ZM147.41 18.6462H157.863L152.53 5.71761L147.41 18.6462Z" fill="white"/>
    <path d="M179.529 28.9721C176.259 28.9721 173.839 28.1969 172.268 26.6466C170.712 25.0821 169.933 22.6713 169.933 19.4143V9.60047C169.933 6.31497 170.712 3.89708 172.268 2.34678C173.825 0.78226 176.231 0.0142227 179.487 0.0426682H184.67C187.355 0.0426682 189.404 0.597361 190.818 1.70675C192.231 2.80191 193.052 4.53711 193.281 6.91234C193.367 7.5097 193.252 7.96483 192.938 8.27773C192.624 8.59064 192.167 8.74709 191.567 8.74709C190.482 8.74709 189.854 8.14973 189.682 6.955C189.54 5.6465 189.083 4.76468 188.312 4.30954C187.555 3.85441 186.341 3.62684 184.67 3.62684H179.487C177.973 3.61262 176.78 3.7833 175.909 4.13887C175.053 4.49444 174.439 5.11314 174.067 5.99496C173.71 6.86256 173.532 8.06439 173.532 9.60047V19.4143C173.532 20.9361 173.71 22.1309 174.067 22.9984C174.439 23.866 175.06 24.4847 175.931 24.8545C176.802 25.2101 178.001 25.3879 179.529 25.3879H184.67C186.341 25.3879 187.555 25.1603 188.312 24.7052C189.083 24.2358 189.54 23.354 189.682 22.0597C189.854 20.865 190.482 20.2677 191.567 20.2677C192.167 20.2677 192.624 20.4241 192.938 20.737C193.252 21.0499 193.367 21.505 193.281 22.1024C193.052 24.4919 192.231 26.2342 190.818 27.3293C189.404 28.4245 187.355 28.9721 184.67 28.9721H179.529Z" fill="white"/>
    <path d="M202.59 28.9721C201.39 28.9721 200.79 28.3747 200.79 27.18V1.83475C200.79 0.64003 201.39 0.0426682 202.59 0.0426682C203.789 0.0426682 204.389 0.64003 204.389 1.83475V11.9686L215.313 0.725367C216.141 -0.156453 216.984 -0.170675 217.841 0.682699C218.726 1.50763 218.74 2.34678 217.883 3.20015L208.78 12.5659L219.511 25.8573C220.24 26.8102 220.154 27.6493 219.254 28.3747C218.326 29.1285 217.484 29.0432 216.727 28.1187L206.252 15.1901L204.389 17.1102V27.18C204.389 28.3747 203.789 28.9721 202.59 28.9721Z" fill="white"/>
    <path d="M7.30622 56C5.89716 56 4.63597 55.7037 3.52264 55.111C2.42671 54.5183 1.56562 53.7054 0.939371 52.6725C0.313124 51.6225 0 50.4372 0 49.1163C0 47.7955 0.313124 46.6185 0.939371 45.5856C1.56562 44.5357 2.42671 43.7228 3.52264 43.1471C4.63597 42.5544 5.89716 42.258 7.30622 42.258C8.55872 42.258 9.67204 42.5036 10.6462 42.9947C11.6378 43.4857 12.4032 44.197 12.9424 45.1283L11.0376 46.3222C10.6027 45.6787 10.0634 45.1961 9.41981 44.8743C8.77616 44.5526 8.06294 44.3917 7.28013 44.3917C6.37555 44.3917 5.55795 44.5865 4.82732 44.9759C4.1141 45.3654 3.54874 45.9242 3.13124 46.6524C2.73113 47.3636 2.53108 48.1849 2.53108 49.1163C2.53108 50.0646 2.73113 50.9029 3.13124 51.631C3.54874 52.3422 4.1141 52.8926 4.82732 53.2821C5.55795 53.6716 6.37555 53.8663 7.28013 53.8663C8.06294 53.8663 8.77616 53.7054 9.41981 53.3837C10.0634 53.0619 10.6027 52.5793 11.0376 51.9358L12.9424 53.1043C12.4032 54.0357 11.6378 54.7553 10.6462 55.2634C9.67204 55.7545 8.55872 56 7.30622 56Z" fill="#EB00FF"/>
    <path d="M41.0832 56C39.7437 56 38.7087 55.6444 37.9781 54.9332C37.2475 54.205 36.8821 53.1889 36.8821 51.885V37H39.3871V51.6818C39.3871 52.41 39.5611 52.9688 39.909 53.3583C40.2743 53.7478 40.8136 53.9425 41.5268 53.9425C41.9617 53.9425 42.3705 53.8578 42.7532 53.6885L42.8837 55.6952C42.3096 55.8984 41.7095 56 41.0832 56Z" fill="#EB00FF"/>
    <path d="M71.8091 56C70.4348 56 69.1997 55.7037 68.1038 55.111C67.0079 54.5183 66.1468 53.7054 65.5205 52.6725C64.9117 51.6225 64.6072 50.4372 64.6072 49.1163C64.6072 47.7955 64.9117 46.6185 65.5205 45.5856C66.1468 44.5357 67.0079 43.7228 68.1038 43.1471C69.1997 42.5544 70.4348 42.258 71.8091 42.258C73.1834 42.258 74.4098 42.5544 75.4883 43.1471C76.5842 43.7228 77.4366 44.5357 78.0455 45.5856C78.6717 46.6185 78.9848 47.7955 78.9848 49.1163C78.9848 50.4372 78.6717 51.6225 78.0455 52.6725C77.4366 53.7054 76.5842 54.5183 75.4883 55.111C74.4098 55.7037 73.1834 56 71.8091 56ZM71.8091 53.8663C72.6963 53.8663 73.4878 53.6716 74.1836 53.2821C74.8968 52.8757 75.4535 52.3168 75.8536 51.6056C76.2537 50.8775 76.4538 50.0477 76.4538 49.1163C76.4538 48.1849 76.2537 47.3636 75.8536 46.6524C75.4535 45.9242 74.8968 45.3654 74.1836 44.9759C73.4878 44.5865 72.6963 44.3917 71.8091 44.3917C70.9219 44.3917 70.1217 44.5865 69.4085 44.9759C68.7126 45.3654 68.156 45.9242 67.7385 46.6524C67.3384 47.3636 67.1383 48.1849 67.1383 49.1163C67.1383 50.0477 67.3384 50.8775 67.7385 51.6056C68.156 52.3168 68.7126 52.8757 69.4085 53.2821C70.1217 53.6716 70.9219 53.8663 71.8091 53.8663Z" fill="#EB00FF"/>
    <path d="M110.604 55.0602C110.239 55.365 109.787 55.602 109.247 55.7714C108.708 55.9238 108.151 56 107.577 56C106.186 56 105.107 55.6359 104.342 54.9078C103.576 54.1796 103.194 53.1381 103.194 51.7834V39.4385H105.699V42.385H109.665V44.3917H105.699V51.6818C105.699 52.41 105.881 52.9688 106.247 53.3583C106.629 53.7478 107.169 53.9425 107.864 53.9425C108.63 53.9425 109.282 53.7308 109.821 53.3075L110.604 55.0602Z" fill="#EB00FF"/>
    <path d="M141.878 42.258C143.635 42.258 145.027 42.7576 146.053 43.7567C147.097 44.7389 147.619 46.1867 147.619 48.1003V55.8476H145.114V48.3797C145.114 47.0758 144.792 46.0936 144.148 45.4332C143.505 44.7727 142.583 44.4425 141.382 44.4425C140.026 44.4425 138.956 44.832 138.173 45.611C137.39 46.373 136.999 47.4737 136.999 48.9131V55.8476H134.494V37H136.999V44.2901C137.521 43.6466 138.199 43.1471 139.034 42.7914C139.886 42.4358 140.835 42.258 141.878 42.258Z" fill="#EB00FF"/>
    <path d="M179.443 53.8663C181.095 53.8663 182.426 53.3244 183.435 52.2406L184.792 53.8155C184.183 54.5267 183.409 55.0686 182.469 55.4412C181.547 55.8137 180.512 56 179.364 56C177.903 56 176.607 55.7121 175.476 55.1364C174.346 54.5437 173.467 53.7224 172.841 52.6725C172.232 51.6225 171.928 50.4372 171.928 49.1163C171.928 47.8124 172.223 46.6355 172.815 45.5856C173.424 44.5357 174.25 43.7228 175.294 43.1471C176.355 42.5544 177.546 42.258 178.868 42.258C180.121 42.258 181.26 42.5374 182.287 43.0963C183.313 43.6381 184.131 44.4086 184.74 45.4078C185.348 46.4069 185.661 47.5584 185.679 48.8623L174.693 50.9452C175.041 51.8766 175.624 52.5963 176.442 53.1043C177.277 53.6123 178.277 53.8663 179.443 53.8663ZM178.868 44.3155C177.999 44.3155 177.216 44.5102 176.52 44.8997C175.842 45.2892 175.311 45.8396 174.928 46.5508C174.546 47.2451 174.354 48.0579 174.354 48.9893V49.2433L183.2 47.6176C182.974 46.6355 182.469 45.8396 181.687 45.2299C180.904 44.6203 179.964 44.3155 178.868 44.3155Z" fill="#EB00FF"/>
    <path d="M214.025 56C212.894 56 211.807 55.8561 210.763 55.5682C209.719 55.2634 208.901 54.8824 208.31 54.4251L209.354 52.4947C209.963 52.918 210.702 53.2567 211.572 53.5107C212.442 53.7647 213.32 53.8917 214.207 53.8917C216.399 53.8917 217.495 53.2821 217.495 52.0628C217.495 51.6564 217.347 51.3347 217.051 51.0976C216.756 50.8605 216.382 50.6912 215.929 50.5896C215.494 50.471 214.868 50.344 214.051 50.2086C212.937 50.0392 212.024 49.8445 211.311 49.6243C210.615 49.4042 210.015 49.0316 209.51 48.5067C209.006 47.9817 208.754 47.2451 208.754 46.2968C208.754 45.0775 209.275 44.1038 210.319 43.3757C211.363 42.6306 212.763 42.258 214.52 42.258C215.442 42.258 216.364 42.3681 217.286 42.5882C218.208 42.8084 218.965 43.1047 219.556 43.4773L218.487 45.4078C217.356 44.6965 216.025 44.3409 214.494 44.3409C213.433 44.3409 212.624 44.5102 212.068 44.8489C211.511 45.1876 211.233 45.6364 211.233 46.1952C211.233 46.6355 211.389 46.9826 211.702 47.2366C212.015 47.4906 212.398 47.6769 212.85 47.7955C213.32 47.914 213.972 48.0495 214.807 48.2019C215.921 48.3881 216.817 48.5914 217.495 48.8115C218.191 49.0147 218.782 49.3703 219.269 49.8783C219.756 50.3864 220 51.0976 220 52.012C220 53.2313 219.461 54.205 218.382 54.9332C217.321 55.6444 215.868 56 214.025 56Z" fill="#EB00FF"/>
</svg>
